<?xml version="1.0" encoding="UTF-8"?>
<svg version="1.1" id="svg1" width="128" height="128" viewBox="0 0 1821.3333 1821.3333"
  xmlns="http://www.w3.org/2000/svg" xmlns:xlink="http://www.w3.org/1999/xlink">
  <defs>
    <clipPath id="clipPath2"><path d="M 0,1366 H 1366 V 0 H 0 Z" transform="translate(-457.41121,-402.13219)"/></clipPath>
    <clipPath id="clipPath4"><path d="M 0,1366 H 1366 V 0 H 0 Z" transform="translate(-571.85471,-1128.9078)"/></clipPath>
    <clipPath id="clipPath6"><path d="M 0,1366 H 1366 V 0 H 0 Z" transform="translate(-901.04882,-1086.9587)"/></clipPath>
    <clipPath id="clipPath8"><path d="M 0,1366 H 1366 V 0 H 0 Z" transform="translate(-739.64452,-1139.86)"/></clipPath>
  </defs>
  <g id="layer-MC0">
    <path id="path1" d="m 0,0 42.785,42.933 4.326,26.679 c 19.492,30.995 41.28,60.661 60.416,91.872 3.336,5.44 11.84,17.853 13.358,23.156 1.525,5.331 -2.901,14.377 -4.849,19.851 -5.09,14.31 -11.333,29.286 -18.467,42.63 L 87.564,196.037 C 82.557,170.469 81.532,151.746 60.158,134.076 46.933,123.143 28.033,119.952 11.403,117.64 L 46.87,268.399 c -0.528,1.685 -10.558,5.968 -11.724,5.15 L -0.016,143.184 c -8.679,-27.642 -45.852,-41.028 -72.147,-42.762 -1.88,-0.124 -5.545,-0.925 -5.457,1.769 l 60.538,180.074 c -12.523,9.771 -15.141,-4.712 -18.71,-13.938 -17.039,-44.042 -30.153,-89.806 -47.875,-133.593 -13.679,-33.796 -24.337,-39.83 -59.203,-48.401 -4.123,-1.014 -31.381,-7.275 -32.666,-6.081 6.303,18.103 14.11,35.868 21.72,53.502 23.831,55.218 49.582,109.674 72.934,165.072 0.073,3.765 -8.494,5.537 -11.586,5.683 L -182.966,109.102 C -198.6,78.924 -209.895,73.916 -242.097,66.1 c -5.472,-1.328 -44.611,-10.041 -46.519,-8.641 L -140.4,328.303 c -2.556,2.263 -7.615,7.4 -10.968,4.534 -2.257,-1.931 -10.787,-16.914 -13.055,-20.686 -27.301,-45.419 -51.613,-96.162 -80.6,-140.08 -13.581,-20.577 -24.938,-25.938 -48.898,-30.438 -13.564,-2.547 -31.708,-5.521 -45.321,-6.657 -2.86,-0.239 -5.789,0.116 -8.648,-0.006 l 153.668,230.752 c 1.727,2.794 -7.482,10.907 -9.591,9.585 -14.328,-21.453 -29,-42.697 -43.936,-63.725 -15.112,-21.277 -34.747,-52.936 -51.836,-71.27 -17.655,-18.94 -60.723,-19.168 -85.226,-19.638 -3.034,-0.058 -6.459,-2.283 -9.577,0.452 l 154.83,194.39 -7.572,10.338 c -25.473,-30.036 -49.38,-61.86 -75.67,-91.199 -21.935,-24.48 -30.599,-34.883 -65.626,-36.507 -12.917,-0.599 -31.127,-0.953 -43.853,0.005 -2.023,0.152 -3.892,0.773 -5.888,0.96 8.451,10.322 17.696,20.329 26.887,30.096 63.878,67.88 128.991,134.977 193.768,201.997 19.352,20.023 58.977,66.336 82.124,76.546 21.046,9.284 69.64,8.412 93.485,6.913 38.992,-2.45 30.626,-37.779 32.29,-66.194 1.481,-25.272 4.916,-41.369 17.893,-63.266 24.114,-40.688 72.673,-65.884 120.185,-60.146 23.874,2.882 24.318,8.887 31.115,29.983 4.538,14.086 8.647,29.8 10.975,45.06 l -10.416,35.473 c -24.84,38.916 -65.383,67.326 -115.096,63.742 -39.41,-2.84 -48.42,-21.38 -73.73,-48.45 -15.8,-16.91 -29.83,-33.12 -43.96,-51.18 -10.27,-13.13 -21.37,-27.41 -28.87,-42.26 -17.85,-35.34 -20.76,-79.53 -11.87,-115.75 15.45,-62.79 78.05,-83.97 137.51,-55.38 23.63,11.37 34.07,28.37 50.11,50.27 17.91,24.48 37.77,50.04 56.76,74.01 5.55,7 24.51,26.91 22.39,35.63 -1.77,7.22 -30.93,15.38 -38.8,19.28 -26.51,13.15 -64.24,32.39 -89.84,23.06 -6.43,-2.35 -11.27,-6.96 -18.08,-8.29 -5.58,-1.09 -14.36,-0.73 -20.24,0.19 -19.81,3.09 -33.71,20.28 -50.48,29.47 -9.39,5.14 -15.85,5.48 -24.86,10.61 -14.79,8.42 -25.28,23.81 -35.93,37.44 -38.35,49.07 -74.35,100.83 -113.71,149.07 -10.79,13.22 -31.05,34.13 -37.6,50.47 -6.38,15.89 -3.77,43.48 -3.27,60.14 0.89,29.96 0.23,46.94 19.88,69.66 14.57,16.85 42.52,22.83 62.19,26.61 3.78,0.73 25.89,5.33 27.28,1.65 1.42,-3.78 -4.75,-13.38 -6.47,-16.78 -21.81,-43.13 -43.51,-86.32 -65.08,-129.56 -9.37,-18.78 -12.59,-23.87 -31.25,-32.56 -23.59,-10.99 -62.27,-16.51 -88.53,-14.15 -13.33,1.2 -12.45,5.66 -22.21,12.61 -12.26,8.72 -26.45,16.27 -40.36,22.45 -3.48,1.55 -28.68,11.51 -30.34,7.48 7.84,-3.47 15.53,-7.35 23.17,-11.32 25.2,-13.08 49.8,-27.51 75.16,-40.24 26.63,-13.36 42.47,-26.42 72.73,-31.73 35.29,-6.2 74.57,-2.44 109.33,4.76 2.44,0.51 20.81,3.96 21.25,1.22 1.18,-7.35 -19.39,-16.14 -24.84,-18.72 -20.93,-9.91 -47.14,-20.11 -69.73,-25.67 -14.71,-3.62 -24.71,-6.41 -39.85,-6.52 -17.41,-0.12 -31.58,2.75 -48.56,6.39 -2.77,0.59 -5.54,1.32 -8.31,1.87 l 35.85,56.18 1.39,2.76 43.31,-43.39 -27.04,30.91 1.37,-41.05 c -11.84,-7.3 -24.87,-12.42 -37.85,-17.33 -1.59,-1.74 4.74,-3.57 5.67,-3.89 10.86,-3.73 23.35,-5.35 34.33,-8.98 l 4.69,-42.74 c 2.18,-0.5 1.47,0.39 2.03,1.19 3.78,5.47 18.52,33.12 23.22,34.23 l 38.57,-8.05 -24.27,34.19 20.63,35.1 37.91,-21.57 31.35,24.18 -41.33,9.02 24.32,-37.29 4.78,43.56 41.74,12.05 36.03,-24.44 -12.48,40.6 32.08,24.15 1.38,2.72 41.49,-41.95 h -43.32 l -14.15,-23.35 -11.29,-41.34 34.63,24.46 z"
      style="fill:#988561;fill-rule:nonzero;stroke:none" transform="matrix(0.0403,0,0,-0.0403,61.6,71.8)" clip-path="url(#clipPath2)"/>
    <path id="path3" d="m 0,0 -20.631,-35.096 24.274,-34.194 -38.574,8.054 c -4.7,-1.106 -19.438,-28.76 -23.219,-34.225 -0.555,-0.802 0.152,-1.688 -2.031,-1.192 l -4.686,42.735 c -10.981,3.628 -23.475,5.251 -34.332,8.982 -0.929,0.32 -7.259,2.152 -5.666,3.895 12.984,4.907 26.009,10.029 37.852,17.328 l -1.37,41.048 27.05,-30.91 z"
      style="fill:#988561;fill-rule:nonzero;stroke:none" transform="matrix(0.0443,0,0,-0.0443,66.7,52.9)" clip-path="url(#clipPath4)"/>
    <path id="path5" d="m 0,0 -41.736,-12.053 -4.778,-43.562 -24.317,37.291 -41.326,-9.017 27.265,33.406 -21.798,37.708 40.393,-15.359 c 10.785,9.511 17.922,23.73 29.814,31.782 l -3.231,-43.784 z"
      style="fill:#988561;fill-rule:nonzero;stroke:none" transform="matrix(0.0443,0,0,-0.0443,73.5,58.2)" clip-path="url(#clipPath6)"/>
    <path id="path7" d="m 0,0 -1.381,-2.723 -32.077,-24.152 12.48,-40.6 -36.025,24.444 -34.634,-24.459 11.293,41.34 L -114.899,0 h 43.315 L -57.44,41.946 -41.492,0 Z"
      style="fill:#988561;fill-rule:nonzero;stroke:none" transform="matrix(0.0703,0,0,-0.0703,50.7,54.8)" clip-path="url(#clipPath8)"/>
  </g>
</svg>